<svg xmlns="http://www.w3.org/2000/svg" xmlns:xlink="http://www.w3.org/1999/xlink" width="100" zoomAndPan="magnify" viewBox="0 0 75 74.999997" height="100" preserveAspectRatio="xMidYMid meet" version="1.0"><defs><clipPath id="ba60222594"><path d="M 23.476562 22.5 L 51.441406 22.5 L 51.441406 52.421875 L 23.476562 52.421875 Z M 23.476562 22.5 " clip-rule="nonzero"/></clipPath><clipPath id="f847abde33"><path d="M 37.5 0 C 16.789062 0 0 16.789062 0 37.5 C 0 58.210938 16.789062 75 37.5 75 C 58.210938 75 75 58.210938 75 37.5 C 75 16.789062 58.210938 0 37.5 0 Z M 37.5 0 " clip-rule="nonzero"/></clipPath></defs><g clip-path="url(#ba60222594)"><path fill="#5c76ff" d="M 36.027344 36.71875 C 35.984375 36.671875 35.941406 36.621094 35.902344 36.566406 C 35.976562 36.667969 36.054688 36.765625 36.132812 36.867188 C 35.960938 36.644531 35.820312 36.402344 35.710938 36.140625 C 35.757812 36.257812 35.808594 36.375 35.859375 36.496094 C 35.734375 36.195312 35.652344 35.882812 35.605469 35.566406 C 35.625 35.695312 35.640625 35.828125 35.660156 35.957031 C 35.613281 35.589844 35.613281 35.21875 35.664062 34.851562 C 35.644531 34.980469 35.628906 35.113281 35.609375 35.242188 C 35.664062 34.847656 35.769531 34.464844 35.921875 34.097656 C 35.875 34.21875 35.824219 34.335938 35.773438 34.453125 C 35.921875 34.105469 36.109375 33.78125 36.339844 33.484375 C 36.261719 33.585938 36.1875 33.683594 36.109375 33.78125 C 36.304688 33.53125 36.53125 33.304688 36.78125 33.109375 C 36.679688 33.183594 36.582031 33.261719 36.480469 33.339844 C 36.765625 33.117188 37.078125 32.941406 37.410156 32.800781 C 37.292969 32.851562 37.175781 32.898438 37.058594 32.949219 C 37.433594 32.796875 37.824219 32.691406 38.226562 32.636719 C 38.09375 32.65625 37.964844 32.671875 37.835938 32.691406 C 38.289062 32.632812 38.746094 32.636719 39.199219 32.695312 C 39.070312 32.679688 38.9375 32.660156 38.808594 32.644531 C 39.304688 32.710938 39.785156 32.84375 40.25 33.039062 C 40.128906 32.988281 40.011719 32.9375 39.894531 32.890625 C 40.320312 33.070312 40.722656 33.300781 41.089844 33.582031 C 40.992188 33.507812 40.890625 33.429688 40.792969 33.351562 C 41.167969 33.644531 41.503906 33.988281 41.796875 34.367188 C 41.71875 34.265625 41.644531 34.167969 41.566406 34.066406 C 41.910156 34.511719 42.191406 35 42.410156 35.519531 C 42.363281 35.402344 42.3125 35.285156 42.261719 35.167969 C 42.523438 35.789062 42.695312 36.441406 42.785156 37.109375 C 42.769531 36.980469 42.75 36.847656 42.734375 36.71875 C 42.824219 37.414062 42.824219 38.121094 42.734375 38.820312 C 42.75 38.6875 42.765625 38.558594 42.785156 38.425781 C 42.683594 39.1875 42.480469 39.929688 42.183594 40.636719 C 42.234375 40.519531 42.285156 40.402344 42.332031 40.285156 C 42.039062 40.980469 41.660156 41.632812 41.203125 42.230469 C 41.28125 42.132812 41.355469 42.03125 41.433594 41.933594 C 41.003906 42.484375 40.507812 42.984375 39.953125 43.414062 C 40.050781 43.335938 40.152344 43.261719 40.25 43.183594 C 39.667969 43.628906 39.03125 43.992188 38.359375 44.28125 C 38.476562 44.230469 38.59375 44.179688 38.710938 44.128906 C 37.941406 44.453125 37.132812 44.667969 36.308594 44.78125 C 36.4375 44.761719 36.570312 44.746094 36.699219 44.726562 C 35.847656 44.839844 34.984375 44.84375 34.128906 44.730469 C 34.261719 44.746094 34.390625 44.765625 34.523438 44.78125 C 33.671875 44.664062 32.835938 44.429688 32.042969 44.097656 C 32.160156 44.148438 32.277344 44.199219 32.394531 44.246094 C 31.535156 43.882812 30.726562 43.40625 29.984375 42.832031 C 30.085938 42.910156 30.183594 42.988281 30.285156 43.0625 C 29.511719 42.464844 28.820312 41.769531 28.222656 41 C 28.300781 41.097656 28.375 41.199219 28.453125 41.296875 C 27.875 40.542969 27.390625 39.71875 27.015625 38.84375 C 27.066406 38.960938 27.117188 39.078125 27.167969 39.195312 C 26.816406 38.363281 26.574219 37.488281 26.453125 36.59375 C 26.472656 36.722656 26.488281 36.855469 26.507812 36.984375 C 26.386719 36.058594 26.390625 35.125 26.515625 34.199219 C 26.496094 34.328125 26.480469 34.460938 26.460938 34.589844 C 26.601562 33.566406 26.878906 32.566406 27.28125 31.613281 C 27.230469 31.734375 27.179688 31.847656 27.132812 31.96875 C 27.542969 31 28.074219 30.089844 28.714844 29.257812 C 28.636719 29.355469 28.558594 29.457031 28.484375 29.554688 C 29.109375 28.746094 29.832031 28.015625 30.644531 27.386719 C 30.546875 27.464844 30.445312 27.539062 30.34375 27.617188 C 31.097656 27.039062 31.917969 26.558594 32.789062 26.1875 C 32.671875 26.238281 32.554688 26.285156 32.4375 26.335938 C 33.414062 25.925781 34.441406 25.652344 35.488281 25.507812 C 35.355469 25.527344 35.226562 25.542969 35.09375 25.5625 C 36.238281 25.410156 37.394531 25.414062 38.539062 25.5625 C 38.40625 25.546875 38.277344 25.53125 38.144531 25.511719 C 39.316406 25.671875 40.460938 25.980469 41.550781 26.4375 C 41.433594 26.390625 41.316406 26.339844 41.199219 26.289062 C 42.1875 26.710938 43.125 27.25 43.976562 27.90625 C 43.878906 27.828125 43.777344 27.753906 43.679688 27.675781 C 44.542969 28.34375 45.3125 29.125 45.980469 29.984375 C 45.902344 29.886719 45.828125 29.785156 45.75 29.6875 C 46.484375 30.644531 47.09375 31.695312 47.5625 32.804688 C 47.511719 32.6875 47.460938 32.570312 47.414062 32.453125 C 47.910156 33.644531 48.25 34.894531 48.421875 36.171875 C 48.40625 36.042969 48.386719 35.910156 48.371094 35.78125 C 48.53125 37.003906 48.539062 38.25 48.375 39.476562 C 48.394531 39.34375 48.410156 39.214844 48.429688 39.082031 C 48.257812 40.351562 47.910156 41.589844 47.417969 42.769531 C 47.46875 42.652344 47.515625 42.535156 47.566406 42.417969 C 47.039062 43.667969 46.34375 44.84375 45.515625 45.917969 C 45.59375 45.816406 45.667969 45.71875 45.746094 45.617188 C 44.90625 46.703125 43.929688 47.679688 42.84375 48.519531 C 42.941406 48.441406 43.039062 48.367188 43.140625 48.289062 C 42.464844 48.808594 41.746094 49.277344 40.992188 49.683594 C 40.671875 49.851562 40.410156 50.21875 40.316406 50.5625 C 40.21875 50.914062 40.261719 51.386719 40.464844 51.699219 C 40.667969 52.015625 40.96875 52.292969 41.34375 52.375 C 41.738281 52.464844 42.121094 52.421875 42.480469 52.226562 C 43.367188 51.753906 44.179688 51.183594 44.972656 50.570312 C 45.671875 50.027344 46.328125 49.421875 46.929688 48.769531 C 48.203125 47.390625 49.285156 45.808594 50.035156 44.082031 C 50.433594 43.171875 50.777344 42.246094 51.007812 41.277344 C 51.242188 40.300781 51.386719 39.292969 51.429688 38.289062 C 51.476562 37.277344 51.390625 36.273438 51.25 35.273438 C 51.125 34.394531 50.921875 33.53125 50.640625 32.691406 C 50.320312 31.734375 49.917969 30.796875 49.425781 29.917969 C 48.945312 29.050781 48.363281 28.238281 47.726562 27.476562 C 47.152344 26.796875 46.511719 26.171875 45.8125 25.625 C 45.011719 25 44.179688 24.445312 43.261719 24.003906 C 41.421875 23.117188 39.445312 22.609375 37.402344 22.511719 C 36.394531 22.464844 35.390625 22.550781 34.394531 22.710938 C 33.511719 22.851562 32.644531 23.089844 31.816406 23.425781 C 30.902344 23.796875 30.027344 24.230469 29.21875 24.804688 C 28.433594 25.359375 27.695312 25.984375 27.046875 26.695312 C 25.734375 28.132812 24.742188 29.824219 24.117188 31.667969 C 23.808594 32.59375 23.628906 33.546875 23.527344 34.511719 C 23.425781 35.488281 23.480469 36.445312 23.613281 37.414062 C 23.730469 38.234375 23.945312 39.039062 24.253906 39.8125 C 24.609375 40.695312 25.027344 41.542969 25.570312 42.328125 C 26.65625 43.890625 28.042969 45.226562 29.6875 46.183594 C 31.34375 47.148438 33.222656 47.707031 35.136719 47.757812 C 36.210938 47.789062 37.316406 47.652344 38.355469 47.367188 C 39.386719 47.085938 40.402344 46.644531 41.292969 46.050781 C 41.777344 45.726562 42.246094 45.363281 42.667969 44.960938 C 43.089844 44.5625 43.449219 44.117188 43.796875 43.652344 C 44.4375 42.8125 44.90625 41.84375 45.246094 40.847656 C 45.394531 40.40625 45.511719 39.953125 45.585938 39.496094 C 45.679688 38.929688 45.75 38.359375 45.75 37.789062 C 45.753906 37.21875 45.6875 36.652344 45.59375 36.089844 C 45.523438 35.640625 45.410156 35.199219 45.257812 34.769531 C 44.875 33.699219 44.324219 32.730469 43.554688 31.890625 C 43.1875 31.492188 42.753906 31.144531 42.304688 30.839844 C 41.855469 30.539062 41.363281 30.316406 40.859375 30.125 C 40.457031 29.96875 40.039062 29.863281 39.609375 29.800781 C 39.066406 29.726562 38.53125 29.667969 37.980469 29.726562 C 37.445312 29.78125 36.914062 29.859375 36.410156 30.050781 C 35.921875 30.238281 35.441406 30.453125 35.019531 30.773438 C 34.777344 30.953125 34.539062 31.136719 34.328125 31.351562 C 34.113281 31.566406 33.933594 31.808594 33.753906 32.046875 C 33.449219 32.449219 33.25 32.898438 33.0625 33.363281 C 32.917969 33.710938 32.824219 34.070312 32.769531 34.441406 C 32.695312 34.941406 32.644531 35.421875 32.707031 35.925781 C 32.742188 36.214844 32.777344 36.507812 32.851562 36.792969 C 32.925781 37.082031 33.042969 37.355469 33.164062 37.628906 C 33.351562 38.066406 33.628906 38.449219 33.941406 38.804688 C 34.179688 39.078125 34.632812 39.238281 34.984375 39.238281 C 35.34375 39.238281 35.777344 39.078125 36.027344 38.804688 C 36.285156 38.523438 36.476562 38.15625 36.457031 37.761719 C 36.441406 37.632812 36.421875 37.5 36.40625 37.371094 C 36.335938 37.121094 36.210938 36.90625 36.027344 36.71875 " fill-opacity="1" fill-rule="nonzero"/><path fill="#5c76ff" d="M 36.027344 36.71875 C 35.984375 36.671875 35.941406 36.621094 35.902344 36.566406 C 35.976562 36.667969 36.054688 36.765625 36.132812 36.867188 C 35.960938 36.644531 35.820312 36.402344 35.710938 36.140625 C 35.757812 36.257812 35.808594 36.375 35.859375 36.496094 C 35.734375 36.195312 35.652344 35.882812 35.605469 35.566406 C 35.625 35.695312 35.640625 35.828125 35.660156 35.957031 C 35.613281 35.589844 35.613281 35.21875 35.664062 34.851562 C 35.644531 34.980469 35.628906 35.113281 35.609375 35.242188 C 35.664062 34.847656 35.769531 34.464844 35.921875 34.097656 C 35.875 34.21875 35.824219 34.335938 35.773438 34.453125 C 35.921875 34.105469 36.109375 33.78125 36.339844 33.484375 C 36.261719 33.585938 36.1875 33.683594 36.109375 33.78125 C 36.304688 33.53125 36.53125 33.304688 36.78125 33.109375 C 36.679688 33.183594 36.582031 33.261719 36.480469 33.339844 C 36.765625 33.117188 37.078125 32.941406 37.410156 32.800781 C 37.292969 32.851562 37.175781 32.898438 37.058594 32.949219 C 37.433594 32.796875 37.824219 32.691406 38.226562 32.636719 C 38.09375 32.65625 37.964844 32.671875 37.835938 32.691406 C 38.289062 32.632812 38.746094 32.636719 39.199219 32.695312 C 39.070312 32.679688 38.9375 32.660156 38.808594 32.644531 C 39.304688 32.710938 39.785156 32.84375 40.25 33.039062 C 40.128906 32.988281 40.011719 32.9375 39.894531 32.890625 C 40.320312 33.070312 40.722656 33.300781 41.089844 33.582031 C 40.992188 33.507812 40.890625 33.429688 40.792969 33.351562 C 41.167969 33.644531 41.503906 33.988281 41.796875 34.367188 C 41.71875 34.265625 41.644531 34.167969 41.566406 34.066406 C 41.910156 34.511719 42.191406 35 42.410156 35.519531 C 42.363281 35.402344 42.3125 35.285156 42.261719 35.167969 C 42.523438 35.789062 42.695312 36.441406 42.785156 37.109375 C 42.769531 36.980469 42.75 36.847656 42.734375 36.71875 C 42.824219 37.414062 42.824219 38.121094 42.734375 38.820312 C 42.75 38.6875 42.765625 38.558594 42.785156 38.425781 C 42.683594 39.1875 42.480469 39.929688 42.183594 40.636719 C 42.234375 40.519531 42.285156 40.402344 42.332031 40.285156 C 42.039062 40.980469 41.660156 41.632812 41.203125 42.230469 C 41.28125 42.132812 41.355469 42.03125 41.433594 41.933594 C 41.003906 42.484375 40.507812 42.984375 39.953125 43.414062 C 40.050781 43.335938 40.152344 43.261719 40.25 43.183594 C 39.667969 43.628906 39.03125 43.992188 38.359375 44.28125 C 38.476562 44.230469 38.59375 44.179688 38.710938 44.128906 C 37.941406 44.453125 37.132812 44.667969 36.308594 44.78125 C 36.4375 44.761719 36.570312 44.746094 36.699219 44.726562 C 35.847656 44.839844 34.984375 44.84375 34.128906 44.730469 C 34.261719 44.746094 34.390625 44.765625 34.523438 44.78125 C 33.671875 44.664062 32.835938 44.429688 32.042969 44.097656 C 32.160156 44.148438 32.277344 44.199219 32.394531 44.246094 C 31.535156 43.882812 30.726562 43.40625 29.984375 42.832031 C 30.085938 42.910156 30.183594 42.988281 30.285156 43.0625 C 29.511719 42.464844 28.820312 41.769531 28.222656 41 C 28.300781 41.097656 28.375 41.199219 28.453125 41.296875 C 27.875 40.542969 27.390625 39.71875 27.015625 38.84375 C 27.066406 38.960938 27.117188 39.078125 27.167969 39.195312 C 26.816406 38.363281 26.574219 37.488281 26.453125 36.59375 C 26.472656 36.722656 26.488281 36.855469 26.507812 36.984375 C 26.386719 36.058594 26.390625 35.125 26.515625 34.199219 C 26.496094 34.328125 26.480469 34.460938 26.460938 34.589844 C 26.601562 33.566406 26.878906 32.566406 27.28125 31.613281 C 27.230469 31.734375 27.179688 31.847656 27.132812 31.96875 C 27.542969 31 28.074219 30.089844 28.714844 29.257812 C 28.636719 29.355469 28.558594 29.457031 28.484375 29.554688 C 29.109375 28.746094 29.832031 28.015625 30.644531 27.386719 C 30.546875 27.464844 30.445312 27.539062 30.34375 27.617188 C 31.097656 27.039062 31.917969 26.558594 32.789062 26.1875 C 32.671875 26.238281 32.554688 26.285156 32.4375 26.335938 C 33.414062 25.925781 34.441406 25.652344 35.488281 25.507812 C 35.355469 25.527344 35.226562 25.542969 35.09375 25.5625 C 36.238281 25.410156 37.394531 25.414062 38.539062 25.5625 C 38.40625 25.546875 38.277344 25.53125 38.144531 25.511719 C 39.316406 25.671875 40.460938 25.980469 41.550781 26.4375 C 41.433594 26.390625 41.316406 26.339844 41.199219 26.289062 C 42.1875 26.710938 43.125 27.25 43.976562 27.90625 C 43.878906 27.828125 43.777344 27.753906 43.679688 27.675781 C 44.542969 28.34375 45.3125 29.125 45.980469 29.984375 C 45.902344 29.886719 45.828125 29.785156 45.75 29.6875 C 46.484375 30.644531 47.09375 31.695312 47.5625 32.804688 C 47.511719 32.6875 47.460938 32.570312 47.414062 32.453125 C 47.910156 33.644531 48.25 34.894531 48.421875 36.171875 C 48.40625 36.042969 48.386719 35.910156 48.371094 35.78125 C 48.53125 37.003906 48.539062 38.25 48.375 39.476562 C 48.394531 39.34375 48.410156 39.214844 48.429688 39.082031 C 48.257812 40.351562 47.910156 41.589844 47.417969 42.769531 C 47.46875 42.652344 47.515625 42.535156 47.566406 42.417969 C 47.039062 43.667969 46.34375 44.84375 45.515625 45.917969 C 45.59375 45.816406 45.667969 45.71875 45.746094 45.617188 C 44.90625 46.703125 43.929688 47.679688 42.84375 48.519531 C 42.941406 48.441406 43.039062 48.367188 43.140625 48.289062 C 42.464844 48.808594 41.746094 49.277344 40.992188 49.683594 C 40.671875 49.851562 40.410156 50.21875 40.316406 50.5625 C 40.21875 50.914062 40.261719 51.386719 40.464844 51.699219 C 40.667969 52.015625 40.96875 52.292969 41.34375 52.375 C 41.738281 52.464844 42.121094 52.421875 42.480469 52.226562 C 43.367188 51.753906 44.179688 51.183594 44.972656 50.570312 C 45.671875 50.027344 46.328125 49.421875 46.929688 48.769531 C 48.203125 47.390625 49.285156 45.808594 50.035156 44.082031 C 50.433594 43.171875 50.777344 42.246094 51.007812 41.277344 C 51.242188 40.300781 51.386719 39.292969 51.429688 38.289062 C 51.476562 37.277344 51.390625 36.273438 51.25 35.273438 C 51.125 34.394531 50.921875 33.53125 50.640625 32.691406 C 50.320312 31.734375 49.917969 30.796875 49.425781 29.917969 C 48.945312 29.050781 48.363281 28.238281 47.726562 27.476562 C 47.152344 26.796875 46.511719 26.171875 45.8125 25.625 C 45.011719 25 44.179688 24.445312 43.261719 24.003906 C 41.421875 23.117188 39.445312 22.609375 37.402344 22.511719 C 36.394531 22.464844 35.390625 22.550781 34.394531 22.710938 C 33.511719 22.851562 32.644531 23.089844 31.816406 23.425781 C 30.902344 23.796875 30.027344 24.230469 29.21875 24.804688 C 28.433594 25.359375 27.695312 25.984375 27.046875 26.695312 C 25.734375 28.132812 24.742188 29.824219 24.117188 31.667969 C 23.808594 32.59375 23.628906 33.546875 23.527344 34.511719 C 23.425781 35.488281 23.480469 36.445312 23.613281 37.414062 C 23.730469 38.234375 23.945312 39.039062 24.253906 39.8125 C 24.609375 40.695312 25.027344 41.542969 25.570312 42.328125 C 26.65625 43.890625 28.042969 45.226562 29.6875 46.183594 C 31.34375 47.148438 33.222656 47.707031 35.136719 47.757812 C 36.210938 47.789062 37.316406 47.652344 38.355469 47.367188 C 39.386719 47.085938 40.402344 46.644531 41.292969 46.050781 C 41.777344 45.726562 42.246094 45.363281 42.667969 44.960938 C 43.089844 44.5625 43.449219 44.117188 43.796875 43.652344 C 44.4375 42.8125 44.90625 41.84375 45.246094 40.847656 C 45.394531 40.40625 45.511719 39.953125 45.585938 39.496094 C 45.679688 38.929688 45.75 38.359375 45.75 37.789062 C 45.753906 37.21875 45.6875 36.652344 45.59375 36.089844 C 45.523438 35.640625 45.410156 35.199219 45.257812 34.769531 C 44.875 33.699219 44.324219 32.730469 43.554688 31.890625 C 43.1875 31.492188 42.753906 31.144531 42.304688 30.839844 C 41.855469 30.539062 41.363281 30.316406 40.859375 30.125 C 40.457031 29.96875 40.039062 29.863281 39.609375 29.800781 C 39.066406 29.726562 38.53125 29.667969 37.980469 29.726562 C 37.445312 29.78125 36.914062 29.859375 36.410156 30.050781 C 35.921875 30.238281 35.441406 30.453125 35.019531 30.773438 C 34.777344 30.953125 34.539062 31.136719 34.328125 31.351562 C 34.113281 31.566406 33.933594 31.808594 33.753906 32.046875 C 33.449219 32.449219 33.25 32.898438 33.0625 33.363281 C 32.917969 33.710938 32.824219 34.070312 32.769531 34.441406 C 32.695312 34.941406 32.644531 35.421875 32.707031 35.925781 C 32.742188 36.214844 32.777344 36.507812 32.851562 36.792969 C 32.925781 37.082031 33.042969 37.355469 33.164062 37.628906 C 33.351562 38.066406 33.628906 38.449219 33.941406 38.804688 C 34.179688 39.078125 34.632812 39.238281 34.984375 39.238281 C 35.34375 39.238281 35.777344 39.078125 36.027344 38.804688 C 36.285156 38.523438 36.476562 38.15625 36.457031 37.761719 C 36.441406 37.632812 36.421875 37.5 36.40625 37.371094 C 36.335938 37.121094 36.210938 36.90625 36.027344 36.71875 " fill-opacity="1" fill-rule="nonzero"/></g><g clip-path="url(#f847abde33)"><rect x="-7.5" width="90" fill="#5c76ff" y="-7.5" height="89.999996" fill-opacity="1"/></g></svg>