<svg xmlns="http://www.w3.org/2000/svg" xmlns:xlink="http://www.w3.org/1999/xlink" width="250" zoomAndPan="magnify" viewBox="0 0 187.5 187.499992" height="250" preserveAspectRatio="xMidYMid meet" version="1.0"><defs><clipPath id="88cbf508ee"><path d="M 6.09375 0 L 180.890625 0 L 180.890625 187 L 6.09375 187 Z M 6.09375 0 " clip-rule="nonzero"/></clipPath></defs><g clip-path="url(#88cbf508ee)"><path fill="#5c76ff" d="M 84.539062 88.878906 C 84.269531 88.566406 84.007812 88.25 83.757812 87.925781 C 84.238281 88.546875 84.714844 89.171875 85.199219 89.792969 C 84.128906 88.394531 83.25 86.878906 82.558594 85.261719 C 82.867188 85.996094 83.179688 86.730469 83.488281 87.464844 C 82.710938 85.601562 82.195312 83.652344 81.917969 81.65625 C 82.027344 82.472656 82.136719 83.289062 82.25 84.105469 C 81.949219 81.808594 81.96875 79.492188 82.269531 77.195312 C 82.160156 78.011719 82.046875 78.828125 81.9375 79.644531 C 82.28125 77.183594 82.9375 74.789062 83.894531 72.496094 C 83.585938 73.230469 83.273438 73.964844 82.964844 74.699219 C 83.886719 72.542969 85.0625 70.511719 86.496094 68.652344 C 86.015625 69.277344 85.535156 69.898438 85.054688 70.519531 C 86.285156 68.949219 87.683594 67.535156 89.25 66.300781 C 88.628906 66.78125 88.007812 67.261719 87.386719 67.742188 C 89.167969 66.367188 91.125 65.253906 93.195312 64.382812 C 92.464844 64.691406 91.730469 65 90.996094 65.308594 C 93.335938 64.34375 95.78125 63.707031 98.289062 63.363281 C 97.472656 63.472656 96.65625 63.582031 95.839844 63.695312 C 98.679688 63.328125 101.542969 63.355469 104.378906 63.722656 C 103.5625 63.613281 102.746094 63.503906 101.929688 63.394531 C 105.027344 63.820312 108.042969 64.648438 110.925781 65.859375 C 110.191406 65.550781 109.457031 65.242188 108.726562 64.933594 C 111.382812 66.070312 113.886719 67.515625 116.1875 69.273438 C 115.566406 68.792969 114.941406 68.3125 114.320312 67.832031 C 116.679688 69.664062 118.773438 71.808594 120.609375 74.160156 C 120.128906 73.539062 119.648438 72.917969 119.167969 72.296875 C 121.316406 75.082031 123.066406 78.136719 124.445312 81.371094 C 124.136719 80.636719 123.828125 79.902344 123.519531 79.167969 C 125.148438 83.050781 126.226562 87.136719 126.785156 91.308594 C 126.675781 90.492188 126.566406 89.675781 126.457031 88.859375 C 127.023438 93.222656 127.019531 97.628906 126.453125 101.992188 C 126.5625 101.175781 126.671875 100.359375 126.78125 99.542969 C 126.144531 104.296875 124.875 108.9375 123.03125 113.363281 C 123.339844 112.628906 123.648438 111.898438 123.960938 111.164062 C 122.128906 115.5 119.761719 119.585938 116.890625 123.316406 C 117.375 122.695312 117.855469 122.074219 118.332031 121.453125 C 115.644531 124.914062 112.546875 128.03125 109.078125 130.710938 C 109.699219 130.230469 110.320312 129.753906 110.945312 129.269531 C 107.308594 132.050781 103.328125 134.335938 99.113281 136.121094 C 99.847656 135.8125 100.582031 135.503906 101.316406 135.191406 C 96.507812 137.203125 91.457031 138.550781 86.296875 139.253906 C 87.113281 139.144531 87.929688 139.035156 88.746094 138.925781 C 83.417969 139.628906 78.019531 139.644531 72.691406 138.929688 C 73.507812 139.039062 74.324219 139.148438 75.140625 139.261719 C 69.8125 138.527344 64.609375 137.070312 59.648438 134.988281 C 60.382812 135.296875 61.117188 135.609375 61.851562 135.917969 C 56.464844 133.640625 51.414062 130.652344 46.78125 127.085938 C 47.40625 127.566406 48.027344 128.046875 48.648438 128.527344 C 43.824219 124.785156 39.496094 120.445312 35.765625 115.617188 C 36.246094 116.238281 36.726562 116.859375 37.207031 117.480469 C 33.585938 112.765625 30.554688 107.621094 28.234375 102.144531 C 28.542969 102.878906 28.855469 103.613281 29.164062 104.34375 C 26.980469 99.140625 25.464844 93.679688 24.710938 88.082031 C 24.820312 88.902344 24.929688 89.71875 25.039062 90.535156 C 24.285156 84.75 24.324219 78.894531 25.089844 73.113281 C 24.980469 73.929688 24.871094 74.746094 24.761719 75.5625 C 25.628906 69.164062 27.375 62.917969 29.875 56.96875 C 29.566406 57.703125 29.257812 58.433594 28.949219 59.167969 C 31.507812 53.128906 34.835938 47.4375 38.832031 42.230469 C 38.351562 42.851562 37.871094 43.476562 37.390625 44.097656 C 41.304688 39.03125 45.835938 34.460938 50.902344 30.542969 C 50.28125 31.023438 49.65625 31.503906 49.035156 31.984375 C 53.738281 28.371094 58.863281 25.371094 64.316406 23.046875 C 63.585938 23.355469 62.851562 23.667969 62.117188 23.976562 C 68.207031 21.40625 74.625 19.695312 81.175781 18.804688 C 80.355469 18.910156 79.542969 19.023438 78.722656 19.132812 C 85.863281 18.183594 93.097656 18.210938 100.234375 19.152344 C 99.417969 19.042969 98.601562 18.933594 97.785156 18.824219 C 105.101562 19.8125 112.265625 21.757812 119.070312 24.621094 C 118.335938 24.308594 117.601562 24 116.871094 23.691406 C 123.058594 26.316406 128.90625 29.691406 134.238281 33.789062 C 133.613281 33.308594 132.992188 32.828125 132.371094 32.347656 C 137.761719 36.519531 142.578125 41.394531 146.753906 46.78125 C 146.273438 46.160156 145.792969 45.539062 145.3125 44.917969 C 149.914062 50.898438 153.703125 57.464844 156.632812 64.414062 C 156.324219 63.679688 156.015625 62.949219 155.707031 62.214844 C 158.820312 69.644531 160.941406 77.464844 162.015625 85.449219 C 161.90625 84.632812 161.796875 83.8125 161.6875 83 C 162.695312 90.660156 162.734375 98.433594 161.722656 106.097656 C 161.832031 105.28125 161.945312 104.464844 162.054688 103.648438 C 160.984375 111.570312 158.824219 119.3125 155.734375 126.679688 C 156.042969 125.945312 156.355469 125.210938 156.664062 124.480469 C 153.359375 132.292969 149.027344 139.640625 143.847656 146.355469 C 144.328125 145.734375 144.808594 145.113281 145.289062 144.492188 C 140.03125 151.273438 133.925781 157.375 127.136719 162.625 C 127.757812 162.144531 128.378906 161.664062 129 161.183594 C 124.769531 164.4375 120.28125 167.355469 115.578125 169.886719 C 113.585938 170.957031 111.9375 173.238281 111.34375 175.390625 C 110.738281 177.597656 111.011719 180.535156 112.273438 182.492188 C 113.542969 184.460938 115.429688 186.195312 117.78125 186.730469 C 120.25 187.289062 122.628906 187.011719 124.882812 185.800781 C 130.410156 182.828125 135.507812 179.28125 140.457031 175.433594 C 144.835938 172.035156 148.925781 168.269531 152.6875 164.195312 C 160.644531 155.566406 167.398438 145.667969 172.101562 134.890625 C 174.585938 129.199219 176.734375 123.40625 178.183594 117.359375 C 179.644531 111.257812 180.53125 104.960938 180.8125 98.691406 C 181.101562 92.355469 180.574219 86.09375 179.6875 79.824219 C 178.914062 74.347656 177.640625 68.941406 175.882812 63.699219 C 173.886719 57.726562 171.355469 51.867188 168.296875 46.359375 C 165.277344 40.933594 161.648438 35.855469 157.65625 31.105469 C 154.082031 26.851562 150.078125 22.953125 145.695312 19.539062 C 140.6875 15.636719 135.488281 12.152344 129.757812 9.394531 C 118.257812 3.859375 105.90625 0.679688 93.144531 0.0820312 C 86.835938 -0.210938 80.566406 0.316406 74.339844 1.316406 C 68.828125 2.199219 63.410156 3.683594 58.234375 5.78125 C 52.507812 8.105469 47.039062 10.816406 41.988281 14.402344 C 37.085938 17.878906 32.472656 21.773438 28.417969 26.21875 C 20.214844 35.214844 14.003906 45.769531 10.117188 57.304688 C 8.175781 63.074219 7.058594 69.03125 6.421875 75.074219 C 5.785156 81.171875 6.132812 87.160156 6.96875 93.214844 C 7.679688 98.351562 9.027344 103.378906 10.957031 108.191406 C 13.179688 113.722656 15.792969 119.019531 19.199219 123.925781 C 25.964844 133.679688 34.648438 142.035156 44.933594 148.027344 C 55.261719 154.046875 67.007812 157.539062 78.96875 157.871094 C 85.703125 158.058594 92.609375 157.207031 99.105469 155.421875 C 105.546875 153.65625 111.898438 150.898438 117.460938 147.183594 C 120.492188 145.160156 123.410156 142.886719 126.054688 140.375 C 128.679688 137.878906 130.9375 135.097656 133.117188 132.210938 C 137.105469 126.949219 140.050781 120.90625 142.167969 114.664062 C 143.101562 111.914062 143.8125 109.085938 144.292969 106.214844 C 144.878906 102.691406 145.308594 99.121094 145.320312 95.546875 C 145.328125 91.988281 144.914062 88.445312 144.34375 84.9375 C 143.886719 82.128906 143.183594 79.359375 142.226562 76.675781 C 139.847656 69.996094 136.410156 63.929688 131.589844 58.699219 C 129.289062 56.199219 126.597656 54.023438 123.785156 52.128906 C 120.976562 50.242188 117.890625 48.859375 114.738281 47.648438 C 112.226562 46.679688 109.613281 46.011719 106.945312 45.636719 C 103.539062 45.15625 100.191406 44.808594 96.753906 45.15625 C 93.417969 45.496094 90.097656 46.007812 86.949219 47.195312 C 83.878906 48.359375 80.875 49.710938 78.246094 51.699219 C 76.742188 52.839844 75.242188 53.972656 73.917969 55.320312 C 72.59375 56.664062 71.460938 58.175781 70.328125 59.679688 C 68.441406 62.1875 67.179688 64.984375 66.003906 67.886719 C 65.121094 70.058594 64.515625 72.320312 64.179688 74.644531 C 63.730469 77.753906 63.410156 80.773438 63.792969 83.90625 C 64.007812 85.71875 64.226562 87.550781 64.6875 89.324219 C 65.15625 91.140625 65.898438 92.84375 66.644531 94.566406 C 67.824219 97.289062 69.566406 99.675781 71.507812 101.910156 C 72.992188 103.621094 75.828125 104.613281 78.023438 104.613281 C 80.285156 104.613281 82.984375 103.609375 84.539062 101.910156 C 86.152344 100.15625 87.351562 97.851562 87.238281 95.394531 C 87.128906 94.578125 87.019531 93.761719 86.910156 92.945312 C 86.472656 91.382812 85.683594 90.027344 84.539062 88.878906 " fill-opacity="1" fill-rule="nonzero"/><path fill="#5c76ff" d="M 84.539062 88.878906 C 84.269531 88.566406 84.007812 88.25 83.757812 87.925781 C 84.238281 88.546875 84.714844 89.171875 85.199219 89.792969 C 84.128906 88.394531 83.25 86.878906 82.558594 85.261719 C 82.867188 85.996094 83.179688 86.730469 83.488281 87.464844 C 82.710938 85.601562 82.195312 83.652344 81.917969 81.65625 C 82.027344 82.472656 82.136719 83.289062 82.25 84.105469 C 81.949219 81.808594 81.96875 79.492188 82.269531 77.195312 C 82.160156 78.011719 82.046875 78.828125 81.9375 79.644531 C 82.28125 77.183594 82.9375 74.789062 83.894531 72.496094 C 83.585938 73.230469 83.273438 73.964844 82.964844 74.699219 C 83.886719 72.542969 85.0625 70.511719 86.496094 68.652344 C 86.015625 69.277344 85.535156 69.898438 85.054688 70.519531 C 86.285156 68.949219 87.683594 67.535156 89.25 66.300781 C 88.628906 66.78125 88.007812 67.261719 87.386719 67.742188 C 89.167969 66.367188 91.125 65.253906 93.195312 64.382812 C 92.464844 64.691406 91.730469 65 90.996094 65.308594 C 93.335938 64.34375 95.78125 63.707031 98.289062 63.363281 C 97.472656 63.472656 96.65625 63.582031 95.839844 63.695312 C 98.679688 63.328125 101.542969 63.355469 104.378906 63.722656 C 103.5625 63.613281 102.746094 63.503906 101.929688 63.394531 C 105.027344 63.820312 108.042969 64.648438 110.925781 65.859375 C 110.191406 65.550781 109.457031 65.242188 108.726562 64.933594 C 111.382812 66.070312 113.886719 67.515625 116.1875 69.273438 C 115.566406 68.792969 114.941406 68.3125 114.320312 67.832031 C 116.679688 69.664062 118.773438 71.808594 120.609375 74.160156 C 120.128906 73.539062 119.648438 72.917969 119.167969 72.296875 C 121.316406 75.082031 123.066406 78.136719 124.445312 81.371094 C 124.136719 80.636719 123.828125 79.902344 123.519531 79.167969 C 125.148438 83.050781 126.226562 87.136719 126.785156 91.308594 C 126.675781 90.492188 126.566406 89.675781 126.457031 88.859375 C 127.023438 93.222656 127.019531 97.628906 126.453125 101.992188 C 126.5625 101.175781 126.671875 100.359375 126.78125 99.542969 C 126.144531 104.296875 124.875 108.9375 123.03125 113.363281 C 123.339844 112.628906 123.648438 111.898438 123.960938 111.164062 C 122.128906 115.5 119.761719 119.585938 116.890625 123.316406 C 117.375 122.695312 117.855469 122.074219 118.332031 121.453125 C 115.644531 124.914062 112.546875 128.03125 109.078125 130.710938 C 109.699219 130.230469 110.320312 129.753906 110.945312 129.269531 C 107.308594 132.050781 103.328125 134.335938 99.113281 136.121094 C 99.847656 135.8125 100.582031 135.503906 101.316406 135.191406 C 96.507812 137.203125 91.457031 138.550781 86.296875 139.253906 C 87.113281 139.144531 87.929688 139.035156 88.746094 138.925781 C 83.417969 139.628906 78.019531 139.644531 72.691406 138.929688 C 73.507812 139.039062 74.324219 139.148438 75.140625 139.261719 C 69.8125 138.527344 64.609375 137.070312 59.648438 134.988281 C 60.382812 135.296875 61.117188 135.609375 61.851562 135.917969 C 56.464844 133.640625 51.414062 130.652344 46.78125 127.085938 C 47.40625 127.566406 48.027344 128.046875 48.648438 128.527344 C 43.824219 124.785156 39.496094 120.445312 35.765625 115.617188 C 36.246094 116.238281 36.726562 116.859375 37.207031 117.480469 C 33.585938 112.765625 30.554688 107.621094 28.234375 102.144531 C 28.542969 102.878906 28.855469 103.613281 29.164062 104.34375 C 26.980469 99.140625 25.464844 93.679688 24.710938 88.082031 C 24.820312 88.902344 24.929688 89.71875 25.039062 90.535156 C 24.285156 84.75 24.324219 78.894531 25.089844 73.113281 C 24.980469 73.929688 24.871094 74.746094 24.761719 75.5625 C 25.628906 69.164062 27.375 62.917969 29.875 56.96875 C 29.566406 57.703125 29.257812 58.433594 28.949219 59.167969 C 31.507812 53.128906 34.835938 47.4375 38.832031 42.230469 C 38.351562 42.851562 37.871094 43.476562 37.390625 44.097656 C 41.304688 39.03125 45.835938 34.460938 50.902344 30.542969 C 50.28125 31.023438 49.65625 31.503906 49.035156 31.984375 C 53.738281 28.371094 58.863281 25.371094 64.316406 23.046875 C 63.585938 23.355469 62.851562 23.667969 62.117188 23.976562 C 68.207031 21.40625 74.625 19.695312 81.175781 18.804688 C 80.355469 18.910156 79.542969 19.023438 78.722656 19.132812 C 85.863281 18.183594 93.097656 18.210938 100.234375 19.152344 C 99.417969 19.042969 98.601562 18.933594 97.785156 18.824219 C 105.101562 19.8125 112.265625 21.757812 119.070312 24.621094 C 118.335938 24.308594 117.601562 24 116.871094 23.691406 C 123.058594 26.316406 128.90625 29.691406 134.238281 33.789062 C 133.613281 33.308594 132.992188 32.828125 132.371094 32.347656 C 137.761719 36.519531 142.578125 41.394531 146.753906 46.78125 C 146.273438 46.160156 145.792969 45.539062 145.3125 44.917969 C 149.914062 50.898438 153.703125 57.464844 156.632812 64.414062 C 156.324219 63.679688 156.015625 62.949219 155.707031 62.214844 C 158.820312 69.644531 160.941406 77.464844 162.015625 85.449219 C 161.90625 84.632812 161.796875 83.8125 161.6875 83 C 162.695312 90.660156 162.734375 98.433594 161.722656 106.097656 C 161.832031 105.28125 161.945312 104.464844 162.054688 103.648438 C 160.984375 111.570312 158.824219 119.3125 155.734375 126.679688 C 156.042969 125.945312 156.355469 125.210938 156.664062 124.480469 C 153.359375 132.292969 149.027344 139.640625 143.847656 146.355469 C 144.328125 145.734375 144.808594 145.113281 145.289062 144.492188 C 140.03125 151.273438 133.925781 157.375 127.136719 162.625 C 127.757812 162.144531 128.378906 161.664062 129 161.183594 C 124.769531 164.4375 120.28125 167.355469 115.578125 169.886719 C 113.585938 170.957031 111.9375 173.238281 111.34375 175.390625 C 110.738281 177.597656 111.011719 180.535156 112.273438 182.492188 C 113.542969 184.460938 115.429688 186.195312 117.78125 186.730469 C 120.25 187.289062 122.628906 187.011719 124.882812 185.800781 C 130.410156 182.828125 135.507812 179.28125 140.457031 175.433594 C 144.835938 172.035156 148.925781 168.269531 152.6875 164.195312 C 160.644531 155.566406 167.398438 145.667969 172.101562 134.890625 C 174.585938 129.199219 176.734375 123.40625 178.183594 117.359375 C 179.644531 111.257812 180.53125 104.960938 180.8125 98.691406 C 181.101562 92.355469 180.574219 86.09375 179.6875 79.824219 C 178.914062 74.347656 177.640625 68.941406 175.882812 63.699219 C 173.886719 57.726562 171.355469 51.867188 168.296875 46.359375 C 165.277344 40.933594 161.648438 35.855469 157.65625 31.105469 C 154.082031 26.851562 150.078125 22.953125 145.695312 19.539062 C 140.6875 15.636719 135.488281 12.152344 129.757812 9.394531 C 118.257812 3.859375 105.90625 0.679688 93.144531 0.0820312 C 86.835938 -0.210938 80.566406 0.316406 74.339844 1.316406 C 68.828125 2.199219 63.410156 3.683594 58.234375 5.78125 C 52.507812 8.105469 47.039062 10.816406 41.988281 14.402344 C 37.085938 17.878906 32.472656 21.773438 28.417969 26.21875 C 20.214844 35.214844 14.003906 45.769531 10.117188 57.304688 C 8.175781 63.074219 7.058594 69.03125 6.421875 75.074219 C 5.785156 81.171875 6.132812 87.160156 6.96875 93.214844 C 7.679688 98.351562 9.027344 103.378906 10.957031 108.191406 C 13.179688 113.722656 15.792969 119.019531 19.199219 123.925781 C 25.964844 133.679688 34.648438 142.035156 44.933594 148.027344 C 55.261719 154.046875 67.007812 157.539062 78.96875 157.871094 C 85.703125 158.058594 92.609375 157.207031 99.105469 155.421875 C 105.546875 153.65625 111.898438 150.898438 117.460938 147.183594 C 120.492188 145.160156 123.410156 142.886719 126.054688 140.375 C 128.679688 137.878906 130.9375 135.097656 133.117188 132.210938 C 137.105469 126.949219 140.050781 120.90625 142.167969 114.664062 C 143.101562 111.914062 143.8125 109.085938 144.292969 106.214844 C 144.878906 102.691406 145.308594 99.121094 145.320312 95.546875 C 145.328125 91.988281 144.914062 88.445312 144.34375 84.9375 C 143.886719 82.128906 143.183594 79.359375 142.226562 76.675781 C 139.847656 69.996094 136.410156 63.929688 131.589844 58.699219 C 129.289062 56.199219 126.597656 54.023438 123.785156 52.128906 C 120.976562 50.242188 117.890625 48.859375 114.738281 47.648438 C 112.226562 46.679688 109.613281 46.011719 106.945312 45.636719 C 103.539062 45.15625 100.191406 44.808594 96.753906 45.15625 C 93.417969 45.496094 90.097656 46.007812 86.949219 47.195312 C 83.878906 48.359375 80.875 49.710938 78.246094 51.699219 C 76.742188 52.839844 75.242188 53.972656 73.917969 55.320312 C 72.59375 56.664062 71.460938 58.175781 70.328125 59.679688 C 68.441406 62.1875 67.179688 64.984375 66.003906 67.886719 C 65.121094 70.058594 64.515625 72.320312 64.179688 74.644531 C 63.730469 77.753906 63.410156 80.773438 63.792969 83.90625 C 64.007812 85.71875 64.226562 87.550781 64.6875 89.324219 C 65.15625 91.140625 65.898438 92.84375 66.644531 94.566406 C 67.824219 97.289062 69.566406 99.675781 71.507812 101.910156 C 72.992188 103.621094 75.828125 104.613281 78.023438 104.613281 C 80.285156 104.613281 82.984375 103.609375 84.539062 101.910156 C 86.152344 100.15625 87.351562 97.851562 87.238281 95.394531 C 87.128906 94.578125 87.019531 93.761719 86.910156 92.945312 C 86.472656 91.382812 85.683594 90.027344 84.539062 88.878906 " fill-opacity="1" fill-rule="nonzero"/></g></svg>